<svg width="1700" height="500" viewBox="0 0 1700 500" fill="none" xmlns="http://www.w3.org/2000/svg">
<rect width="1700" height="500" rx="16" fill="url(#paint0_linear_706_2324)"/>
<path d="M114.255 217.195L177.234 184.816L136.383 355.232L110.851 378.665L278.936 319.019L235.106 388.89L142.553 421.695L50 454.5L114.255 217.195Z" fill="white"/>
<path d="M194.681 175.869L450 45.5L397.66 129.43L264.22 198.875L238.936 211.23L224.788 272.58L269.149 257.033L294.681 217.195L365.319 180.981L331.277 235.515L287.872 304.746L219.787 328.924L151.702 353.102L194.681 175.869Z" fill="white"/>
<path d="M514.255 217.195L577.234 184.816L536.383 355.232L510.851 378.665L678.936 319.019L635.106 388.89L542.553 421.695L450 454.5L514.255 217.195Z" fill="white"/>
<path d="M594.681 175.869L850 45.5L797.66 129.43L664.22 198.875L638.936 211.23L624.788 272.58L669.149 257.033L694.681 217.195L765.319 180.981L731.277 235.515L687.872 304.746L619.787 328.924L551.702 353.102L594.681 175.869Z" fill="white"/>
<path d="M914.255 217.195L977.234 184.816L936.383 355.232L910.851 378.665L1078.94 319.019L1035.11 388.89L942.553 421.695L850 454.5L914.255 217.195Z" fill="white"/>
<path d="M994.681 175.869L1250 45.5L1197.66 129.43L1064.22 198.875L1038.94 211.23L1024.79 272.58L1069.15 257.033L1094.68 217.195L1165.32 180.981L1131.28 235.515L1087.87 304.746L1019.79 328.924L951.702 353.102L994.681 175.869Z" fill="white"/>
<path d="M1314.26 217.195L1377.23 184.816L1336.38 355.232L1310.85 378.665L1478.94 319.019L1435.11 388.89L1342.55 421.695L1250 454.5L1314.26 217.195Z" fill="white"/>
<path d="M1394.68 175.869L1650 45.5L1597.66 129.43L1464.22 198.875L1438.94 211.23L1424.79 272.58L1469.15 257.033L1494.68 217.195L1565.32 180.981L1531.28 235.515L1487.87 304.746L1419.79 328.924L1351.7 353.102L1394.68 175.869Z" fill="white"/>
<defs>
<linearGradient id="paint0_linear_706_2324" x1="0" y1="250" x2="1700" y2="250" gradientUnits="userSpaceOnUse">
<stop stop-color="#061222"/>
<stop offset="0.3" stop-color="#123249"/>
<stop offset="0.6" stop-color="#2D5B75"/>
<stop offset="1" stop-color="#447794"/>
</linearGradient>
</defs>
</svg>
