<svg width="1808" height="1808" viewBox="0 0 1808 1808" fill="none" xmlns="http://www.w3.org/2000/svg">
<g filter="url(#filter0_d_711_9792)">
<rect width="1800" height="1800" rx="100" fill="#447794" fill-opacity="0.1" shape-rendering="crispEdges"/>
<g filter="url(#filter1_d_711_9792)">
<rect x="50.5" y="50.5" width="533" height="533" rx="100" fill="white"/>
<g filter="url(#filter2_d_711_9792)">
<path d="M517.494 254.7C517.494 192.179 504.537 141.5 466.758 141.5C435.411 141.5 396.918 176.432 384.684 224.027C380.736 176.432 366.515 141.5 335.168 141.5C303.821 141.5 265.326 176.432 253.092 224.027C249.146 176.432 234.923 141.5 203.576 141.5C165.798 141.5 117.5 192.184 117.5 254.7C117.5 360.109 134.424 449.946 200.218 476.033C268.362 503.134 403.33 490.679 431.273 481.572C482.418 464.9 517.5 345.319 517.5 254.7H517.494Z" fill="#6C3E86"/>
<path d="M314.686 427.031H314.394C285.579 426.871 256.505 403.015 256.505 350.08H274.173C274.173 393.665 295.891 409.252 314.493 409.355H314.688C336.975 409.357 360.809 388.601 361.236 349.981L378.906 350.175C378.347 400.162 345.456 427.025 314.685 427.03L314.686 427.031Z" fill="white"/>
<path fill-rule="evenodd" clip-rule="evenodd" d="M370.347 308.048C374.567 300.034 383.007 300.034 387.228 304.04C391.449 308.048 391.449 316.062 387.228 324.076C384.274 330.087 376.677 336.097 370.347 340.105C364.016 336.097 356.419 330.087 353.465 324.076C349.245 316.062 349.245 308.048 353.465 304.04C357.686 300.034 366.126 300.034 370.347 308.048Z" fill="white"/>
<path fill-rule="evenodd" clip-rule="evenodd" d="M265.547 308.047C269.767 300.034 278.208 300.034 282.428 304.041C286.649 308.047 286.649 316.062 282.428 324.076C279.474 330.087 271.877 336.097 265.547 340.104C259.216 336.097 251.619 330.087 248.665 324.076C244.445 316.062 244.445 308.047 248.665 304.041C252.886 300.034 261.327 300.034 265.547 308.047Z" fill="white"/>
</g>
</g>
<g filter="url(#filter3_d_711_9792)">
<rect x="633.5" y="50.5" width="533" height="533" rx="100" fill="white"/>
<g filter="url(#filter4_d_711_9792)">
<path d="M1100.9 254.7C1100.9 192.179 1087.94 141.5 1050.16 141.5C1018.82 141.5 980.323 176.432 968.089 224.027C964.142 176.432 949.92 141.5 918.574 141.5C887.227 141.5 848.732 176.432 836.498 224.027C832.551 176.432 818.329 141.5 786.982 141.5C749.203 141.5 700.906 192.184 700.906 254.7C700.906 360.109 717.83 449.946 783.624 476.033C851.767 503.134 986.736 490.679 1014.68 481.572C1065.82 464.9 1100.91 345.319 1100.91 254.7H1100.9Z" fill="#FAB70A"/>
<path d="M864.744 307.726C871.83 307.726 877.575 313.472 877.575 320.561C877.575 327.648 871.83 333.393 864.744 333.393C857.658 333.393 851.913 327.648 851.913 320.561C851.913 313.472 857.658 307.726 864.744 307.726Z" fill="white"/>
<path d="M937.479 307.726C944.565 307.726 950.31 313.472 950.31 320.561C950.31 327.648 944.565 333.393 937.479 333.393C930.393 333.393 924.648 327.648 924.648 320.561C924.648 313.472 930.393 307.726 937.479 307.726Z" fill="white"/>
<path d="M848.5 381.56C856.685 377.615 878.944 364.539 895.786 361.945C908.629 359.967 931.807 363.44 962.1 378.765" stroke="white" stroke-width="22.31" stroke-miterlimit="1.5" stroke-linecap="round" stroke-linejoin="round"/>
</g>
</g>
<g filter="url(#filter5_d_711_9792)">
<rect x="1216.5" y="50.5" width="533" height="533" rx="100" fill="white"/>
<g filter="url(#filter6_d_711_9792)">
<path d="M1683.9 254.7C1683.9 192.179 1670.94 141.5 1633.16 141.5C1601.82 141.5 1563.32 176.432 1551.09 224.027C1547.14 176.432 1532.92 141.5 1501.57 141.5C1470.23 141.5 1431.73 176.432 1419.5 224.027C1415.55 176.432 1401.33 141.5 1369.98 141.5C1332.2 141.5 1283.91 192.184 1283.91 254.7C1283.91 360.109 1300.83 449.946 1366.62 476.033C1434.77 503.134 1569.74 490.679 1597.68 481.572C1648.82 464.9 1683.91 345.319 1683.91 254.7H1683.9Z" fill="#6C3E86"/>
<path fill-rule="evenodd" clip-rule="evenodd" d="M1422.76 436.765C1420.45 450.245 1485.28 388.048 1545.1 435.88C1539.54 359.827 1441.11 329.835 1422.76 436.765Z" fill="white" stroke="white" stroke-width="33.33" stroke-miterlimit="1.5" stroke-linecap="round" stroke-linejoin="round"/>
<path d="M1431.74 307.726C1438.83 307.726 1444.57 313.472 1444.57 320.561C1444.57 327.648 1438.83 333.393 1431.74 333.393C1424.66 333.393 1418.91 327.648 1418.91 320.561C1418.91 313.472 1424.66 307.726 1431.74 307.726Z" fill="white"/>
<path d="M1536.48 307.726C1543.57 307.726 1549.31 313.472 1549.31 320.561C1549.31 327.648 1543.57 333.393 1536.48 333.393C1529.39 333.393 1523.65 327.648 1523.65 320.561C1523.65 313.472 1529.39 307.726 1536.48 307.726Z" fill="white"/>
</g>
</g>
<g filter="url(#filter7_d_711_9792)">
<rect x="50.5" y="633.5" width="533" height="533" rx="100" fill="white"/>
<g filter="url(#filter8_d_711_9792)">
<path d="M517.494 838.7C517.494 776.179 504.537 725.5 466.758 725.5C435.411 725.5 396.918 760.432 384.684 808.027C380.736 760.432 366.515 725.5 335.168 725.5C303.821 725.5 265.326 760.432 253.092 808.027C249.146 760.432 234.923 725.5 203.576 725.5C165.798 725.5 117.5 776.184 117.5 838.7C117.5 944.109 134.424 1033.95 200.218 1060.03C268.362 1087.13 403.33 1074.68 431.273 1065.57C482.418 1048.9 517.5 929.319 517.5 838.7H517.494Z" fill="#6C3E86"/>
<path d="M314.686 1011.03H314.394C285.578 1010.87 256.505 987.015 256.505 934.08H274.173C274.173 977.665 295.89 993.252 314.492 993.355H314.687C336.974 993.357 360.809 972.601 361.235 933.981L378.905 934.175C378.346 984.162 345.455 1011.02 314.684 1011.03L314.686 1011.03Z" fill="white"/>
<path fill-rule="evenodd" clip-rule="evenodd" d="M263.786 883.01L278.13 886.7L275.589 896.565L285.762 895.932L286.682 910.705L276.51 911.338L280.256 920.812L266.482 926.253L262.736 916.779L254.879 923.267L245.446 911.856L253.302 905.368L244.7 899.905L252.643 887.412L261.246 892.875L263.786 883.01Z" fill="white"/>
<path d="M265.691 911.087C269.17 911.087 271.99 908.197 271.99 904.632C271.99 901.067 269.17 898.177 265.691 898.177C262.212 898.177 259.392 901.067 259.392 904.632C259.392 908.197 262.212 911.087 265.691 911.087Z" fill="#6C3E86"/>
<path fill-rule="evenodd" clip-rule="evenodd" d="M386.253 890.068L391.918 903.744L382.501 907.641L389.118 915.388L377.855 924.999L371.237 917.252L365.91 925.937L353.283 918.2L358.61 909.516L348.7 907.136L352.16 892.744L362.07 895.123L361.273 884.968L376.038 883.81L376.835 893.965L386.253 890.068Z" fill="white"/>
<path d="M370.31 910.77C373.789 910.77 376.609 907.88 376.609 904.316C376.609 900.751 373.789 897.861 370.31 897.861C366.831 897.861 364.011 900.751 364.011 904.316C364.011 907.88 366.831 910.77 370.31 910.77Z" fill="#6C3E86"/>
</g>
</g>
<g filter="url(#filter9_d_711_9792)">
<rect x="633.5" y="633.5" width="533" height="533" rx="100" fill="#6C3E86"/>
<g filter="url(#filter10_d_711_9792)">
<path d="M1100.9 838.7C1100.9 776.179 1087.94 725.5 1050.16 725.5C1018.82 725.5 980.323 760.432 968.089 808.027C964.142 760.432 949.92 725.5 918.574 725.5C887.227 725.5 848.732 760.432 836.498 808.027C832.551 760.432 818.329 725.5 786.982 725.5C749.203 725.5 700.906 776.184 700.906 838.7C700.906 944.109 717.83 1033.95 783.624 1060.03C851.767 1087.13 986.736 1074.68 1014.68 1065.57C1065.82 1048.9 1100.91 929.319 1100.91 838.7H1100.9Z" fill="white"/>
<path d="M848.745 891.726C855.83 891.726 861.575 897.473 861.575 904.562C861.575 911.649 855.83 917.394 848.745 917.394C841.658 917.394 835.913 911.649 835.913 904.562C835.913 897.473 841.658 891.726 848.745 891.726Z" fill="#6C3E86"/>
<path d="M953.48 883.73C960.565 883.73 966.31 889.477 966.31 896.566C966.31 903.653 960.565 909.398 953.48 909.398C946.393 909.398 940.648 903.653 940.648 896.566C940.648 889.477 946.393 883.73 953.48 883.73Z" fill="#6C3E86"/>
<path fill-rule="evenodd" clip-rule="evenodd" d="M945.656 952.016C953.114 946.933 955.077 944.281 956.353 942.946C969.575 929.117 986.629 924.425 991.608 937.109C997.942 953.244 985.545 972.038 970.157 984.03C961.596 990.702 939.967 998.932 923.209 997.017C890.793 993.312 870.9 974.839 870.9 953.362C870.9 939.898 892.996 955.714 908.806 957.529C919.2 958.724 936.761 958.08 945.656 952.016Z" fill="#6C3E86"/>
</g>
</g>
<g filter="url(#filter11_d_711_9792)">
<rect x="1216.5" y="633.5" width="533" height="533" rx="100" fill="white"/>
<g filter="url(#filter12_d_711_9792)">
<path d="M1683.49 838.7C1683.49 776.179 1670.54 725.5 1632.76 725.5C1601.41 725.5 1562.92 760.432 1550.68 808.027C1546.74 760.432 1532.51 725.5 1501.17 725.5C1469.82 725.5 1431.33 760.432 1419.09 808.027C1415.15 760.432 1400.92 725.5 1369.58 725.5C1331.8 725.5 1283.5 776.184 1283.5 838.7C1283.5 944.109 1300.42 1033.95 1366.22 1060.03C1434.36 1087.13 1569.33 1074.68 1597.27 1065.57C1648.42 1048.9 1683.5 929.319 1683.5 838.7H1683.49Z" fill="#FAB70A"/>
<path fill-rule="evenodd" clip-rule="evenodd" d="M1536.35 892.048C1540.57 884.034 1549.01 884.034 1553.23 888.04C1557.45 892.048 1557.45 900.062 1553.23 908.076C1550.27 914.087 1542.68 920.097 1536.35 924.105C1530.02 920.097 1522.42 914.087 1519.47 908.076C1515.25 900.062 1515.25 892.048 1519.47 888.04C1523.69 884.034 1532.13 884.034 1536.35 892.048Z" fill="white"/>
<path fill-rule="evenodd" clip-rule="evenodd" d="M1431.55 892.047C1435.77 884.034 1444.21 884.034 1448.43 888.041C1452.65 892.047 1452.65 900.062 1448.43 908.076C1445.47 914.087 1437.88 920.097 1431.55 924.104C1425.22 920.097 1417.62 914.087 1414.67 908.076C1410.45 900.062 1410.45 892.047 1414.67 888.041C1418.89 884.034 1427.33 884.034 1431.55 892.047Z" fill="white"/>
<path fill-rule="evenodd" clip-rule="evenodd" d="M1467.67 950.782C1501.52 950.782 1537.57 971.09 1545.8 987.813C1552.73 1001.88 1518.32 1016.22 1484.47 1016.22C1450.61 1016.22 1427.77 1002.79 1423.13 987.813C1419.6 976.434 1438.17 950.782 1467.67 950.782Z" fill="white"/>
</g>
</g>
<g filter="url(#filter13_d_711_9792)">
<rect x="50.5" y="1216.5" width="533" height="533" rx="100" fill="white"/>
<g filter="url(#filter14_d_711_9792)">
<path d="M517.899 1420.7C517.899 1358.18 504.942 1307.5 467.164 1307.5C435.817 1307.5 397.323 1342.43 385.089 1390.03C381.142 1342.43 366.92 1307.5 335.574 1307.5C304.227 1307.5 265.732 1342.43 253.498 1390.03C249.551 1342.43 235.329 1307.5 203.982 1307.5C166.203 1307.5 117.906 1358.18 117.906 1420.7C117.906 1526.11 134.83 1615.95 200.624 1642.03C268.767 1669.13 403.736 1656.68 431.679 1647.57C482.824 1630.9 517.906 1511.32 517.906 1420.7H517.899Z" fill="#FAB70A"/>
<path d="M265.745 1473.73C272.83 1473.73 278.575 1479.47 278.575 1486.56C278.575 1493.65 272.83 1499.39 265.745 1499.39C258.658 1499.39 252.913 1493.65 252.913 1486.56C252.913 1479.47 258.658 1473.73 265.745 1473.73Z" fill="white"/>
<path d="M370.48 1457.73C377.565 1457.73 383.31 1463.48 383.31 1470.57C383.31 1477.66 377.565 1483.4 370.48 1483.4C363.393 1483.4 357.648 1477.66 357.648 1470.57C357.648 1463.48 363.393 1457.73 370.48 1457.73Z" fill="white"/>
<path fill-rule="evenodd" clip-rule="evenodd" d="M288.062 1545.47C282.6 1536.9 416.898 1515.59 410.046 1517.31C386.567 1523.21 372.836 1543.22 372.836 1543.22C372.836 1543.22 328.083 1608.22 288.062 1545.47Z" fill="white" stroke="white" stroke-width="33.33" stroke-miterlimit="1.5" stroke-linecap="round" stroke-linejoin="round"/>
</g>
</g>
<g filter="url(#filter15_d_711_9792)">
<rect x="633.5" y="1216.5" width="533" height="533" rx="100" fill="white"/>
<g filter="url(#filter16_d_711_9792)">
<path d="M1100.09 1420.7C1100.09 1358.18 1087.13 1307.5 1049.35 1307.5C1018.01 1307.5 979.512 1342.43 967.278 1390.03C963.33 1342.43 949.109 1307.5 917.762 1307.5C886.415 1307.5 847.92 1342.43 835.686 1390.03C831.74 1342.43 817.517 1307.5 786.17 1307.5C748.392 1307.5 700.094 1358.18 700.094 1420.7C700.094 1526.11 717.018 1615.95 782.813 1642.03C850.956 1669.13 985.925 1656.68 1013.87 1647.57C1065.01 1630.9 1100.09 1511.32 1100.09 1420.7H1100.09Z" fill="#6C3E86"/>
<path d="M952.255 1473.73C945.17 1473.73 939.425 1479.47 939.425 1486.56C939.425 1493.65 945.17 1499.39 952.255 1499.39C959.342 1499.39 965.087 1493.65 965.087 1486.56C965.087 1479.47 959.342 1473.73 952.255 1473.73Z" fill="white"/>
<path d="M847.52 1457.73C840.435 1457.73 834.69 1463.48 834.69 1470.57C834.69 1477.66 840.435 1483.4 847.52 1483.4C854.607 1483.4 860.352 1477.66 860.352 1470.57C860.352 1463.48 854.607 1457.73 847.52 1457.73Z" fill="white"/>
<path fill-rule="evenodd" clip-rule="evenodd" d="M831.713 1515.75C839.983 1529.76 852.494 1537.47 872.88 1542.56C897.773 1548.77 912.261 1550.62 930.1 1551.36C930.122 1551.39 895.256 1584.87 861 1572.12C826.745 1559.38 803.189 1537.59 808.43 1523.51C810.096 1519.03 823.984 1512.79 831.713 1515.75Z" fill="white" stroke="white" stroke-width="33.33" stroke-miterlimit="1.5" stroke-linecap="round" stroke-linejoin="round"/>
</g>
</g>
<g filter="url(#filter17_d_711_9792)">
<rect x="1216.5" y="1216.5" width="533" height="533" rx="100" fill="white"/>
<g filter="url(#filter18_d_711_9792)">
<path d="M1683.9 1420.7C1683.9 1358.18 1670.94 1307.5 1633.16 1307.5C1601.82 1307.5 1563.32 1342.43 1551.09 1390.03C1547.14 1342.43 1532.92 1307.5 1501.57 1307.5C1470.23 1307.5 1431.73 1342.43 1419.5 1390.03C1415.55 1342.43 1401.33 1307.5 1369.98 1307.5C1332.2 1307.5 1283.91 1358.18 1283.91 1420.7C1283.91 1526.11 1300.83 1615.95 1366.62 1642.03C1434.77 1669.13 1569.74 1656.68 1597.68 1647.57C1648.82 1630.9 1683.91 1511.32 1683.91 1420.7H1683.9Z" fill="#6C3E86"/>
<path d="M1447.74 1473.73C1454.83 1473.73 1460.57 1479.47 1460.57 1486.56C1460.57 1493.65 1454.83 1499.39 1447.74 1499.39C1440.66 1499.39 1434.91 1493.65 1434.91 1486.56C1434.91 1479.47 1440.66 1473.73 1447.74 1473.73Z" fill="white"/>
<path d="M1520.48 1473.73C1527.57 1473.73 1533.31 1479.47 1533.31 1486.56C1533.31 1493.65 1527.57 1499.39 1520.48 1499.39C1513.39 1499.39 1507.65 1493.65 1507.65 1486.56C1507.65 1479.47 1513.39 1473.73 1520.48 1473.73Z" fill="white"/>
<path fill-rule="evenodd" clip-rule="evenodd" d="M1442.56 1538.06C1454.2 1554.45 1468.11 1559.52 1488.73 1556.86C1513.91 1553.62 1528.07 1549.15 1545.1 1541.41C1545.13 1541.44 1521.43 1607.59 1485.63 1605.92C1449.83 1604.24 1421.65 1584.08 1422.73 1560.92C1423.07 1553.56 1434.46 1537.58 1442.56 1538.06Z" fill="white" stroke="white" stroke-width="33.33" stroke-miterlimit="1.5" stroke-linecap="round" stroke-linejoin="round"/>
</g>
</g>
</g>
<defs>
<filter id="filter0_d_711_9792" x="0" y="0" width="1808" height="1808" filterUnits="userSpaceOnUse" color-interpolation-filters="sRGB">
<feFlood flood-opacity="0" result="BackgroundImageFix"/>
<feColorMatrix in="SourceAlpha" type="matrix" values="0 0 0 0 0 0 0 0 0 0 0 0 0 0 0 0 0 0 127 0" result="hardAlpha"/>
<feOffset dx="4" dy="4"/>
<feGaussianBlur stdDeviation="2"/>
<feComposite in2="hardAlpha" operator="out"/>
<feColorMatrix type="matrix" values="0 0 0 0 0 0 0 0 0 0 0 0 0 0 0 0 0 0 0.25 0"/>
<feBlend mode="normal" in2="BackgroundImageFix" result="effect1_dropShadow_711_9792"/>
<feBlend mode="normal" in="SourceGraphic" in2="effect1_dropShadow_711_9792" result="shape"/>
</filter>
<filter id="filter1_d_711_9792" x="46.5" y="50.5" width="541" height="541" filterUnits="userSpaceOnUse" color-interpolation-filters="sRGB">
<feFlood flood-opacity="0" result="BackgroundImageFix"/>
<feColorMatrix in="SourceAlpha" type="matrix" values="0 0 0 0 0 0 0 0 0 0 0 0 0 0 0 0 0 0 127 0" result="hardAlpha"/>
<feOffset dy="4"/>
<feGaussianBlur stdDeviation="2"/>
<feComposite in2="hardAlpha" operator="out"/>
<feColorMatrix type="matrix" values="0 0 0 0 0 0 0 0 0 0 0 0 0 0 0 0 0 0 0.25 0"/>
<feBlend mode="normal" in2="BackgroundImageFix" result="effect1_dropShadow_711_9792"/>
<feBlend mode="normal" in="SourceGraphic" in2="effect1_dropShadow_711_9792" result="shape"/>
</filter>
<filter id="filter2_d_711_9792" x="115.5" y="141.5" width="408" height="359" filterUnits="userSpaceOnUse" color-interpolation-filters="sRGB">
<feFlood flood-opacity="0" result="BackgroundImageFix"/>
<feColorMatrix in="SourceAlpha" type="matrix" values="0 0 0 0 0 0 0 0 0 0 0 0 0 0 0 0 0 0 127 0" result="hardAlpha"/>
<feOffset dx="2" dy="4"/>
<feGaussianBlur stdDeviation="2"/>
<feComposite in2="hardAlpha" operator="out"/>
<feColorMatrix type="matrix" values="0 0 0 0 0 0 0 0 0 0 0 0 0 0 0 0 0 0 0.25 0"/>
<feBlend mode="normal" in2="BackgroundImageFix" result="effect1_dropShadow_711_9792"/>
<feBlend mode="normal" in="SourceGraphic" in2="effect1_dropShadow_711_9792" result="shape"/>
</filter>
<filter id="filter3_d_711_9792" x="629.5" y="50.5" width="541" height="541" filterUnits="userSpaceOnUse" color-interpolation-filters="sRGB">
<feFlood flood-opacity="0" result="BackgroundImageFix"/>
<feColorMatrix in="SourceAlpha" type="matrix" values="0 0 0 0 0 0 0 0 0 0 0 0 0 0 0 0 0 0 127 0" result="hardAlpha"/>
<feOffset dy="4"/>
<feGaussianBlur stdDeviation="2"/>
<feComposite in2="hardAlpha" operator="out"/>
<feColorMatrix type="matrix" values="0 0 0 0 0 0 0 0 0 0 0 0 0 0 0 0 0 0 0.25 0"/>
<feBlend mode="normal" in2="BackgroundImageFix" result="effect1_dropShadow_711_9792"/>
<feBlend mode="normal" in="SourceGraphic" in2="effect1_dropShadow_711_9792" result="shape"/>
</filter>
<filter id="filter4_d_711_9792" x="698.5" y="141.5" width="408.406" height="359" filterUnits="userSpaceOnUse" color-interpolation-filters="sRGB">
<feFlood flood-opacity="0" result="BackgroundImageFix"/>
<feColorMatrix in="SourceAlpha" type="matrix" values="0 0 0 0 0 0 0 0 0 0 0 0 0 0 0 0 0 0 127 0" result="hardAlpha"/>
<feOffset dx="2" dy="4"/>
<feGaussianBlur stdDeviation="2"/>
<feComposite in2="hardAlpha" operator="out"/>
<feColorMatrix type="matrix" values="0 0 0 0 0 0 0 0 0 0 0 0 0 0 0 0 0 0 0.25 0"/>
<feBlend mode="normal" in2="BackgroundImageFix" result="effect1_dropShadow_711_9792"/>
<feBlend mode="normal" in="SourceGraphic" in2="effect1_dropShadow_711_9792" result="shape"/>
</filter>
<filter id="filter5_d_711_9792" x="1212.5" y="50.5" width="541" height="541" filterUnits="userSpaceOnUse" color-interpolation-filters="sRGB">
<feFlood flood-opacity="0" result="BackgroundImageFix"/>
<feColorMatrix in="SourceAlpha" type="matrix" values="0 0 0 0 0 0 0 0 0 0 0 0 0 0 0 0 0 0 127 0" result="hardAlpha"/>
<feOffset dy="4"/>
<feGaussianBlur stdDeviation="2"/>
<feComposite in2="hardAlpha" operator="out"/>
<feColorMatrix type="matrix" values="0 0 0 0 0 0 0 0 0 0 0 0 0 0 0 0 0 0 0.25 0"/>
<feBlend mode="normal" in2="BackgroundImageFix" result="effect1_dropShadow_711_9792"/>
<feBlend mode="normal" in="SourceGraphic" in2="effect1_dropShadow_711_9792" result="shape"/>
</filter>
<filter id="filter6_d_711_9792" x="1281.5" y="141.5" width="408.406" height="359" filterUnits="userSpaceOnUse" color-interpolation-filters="sRGB">
<feFlood flood-opacity="0" result="BackgroundImageFix"/>
<feColorMatrix in="SourceAlpha" type="matrix" values="0 0 0 0 0 0 0 0 0 0 0 0 0 0 0 0 0 0 127 0" result="hardAlpha"/>
<feOffset dx="2" dy="4"/>
<feGaussianBlur stdDeviation="2"/>
<feComposite in2="hardAlpha" operator="out"/>
<feColorMatrix type="matrix" values="0 0 0 0 0 0 0 0 0 0 0 0 0 0 0 0 0 0 0.25 0"/>
<feBlend mode="normal" in2="BackgroundImageFix" result="effect1_dropShadow_711_9792"/>
<feBlend mode="normal" in="SourceGraphic" in2="effect1_dropShadow_711_9792" result="shape"/>
</filter>
<filter id="filter7_d_711_9792" x="46.5" y="633.5" width="541" height="541" filterUnits="userSpaceOnUse" color-interpolation-filters="sRGB">
<feFlood flood-opacity="0" result="BackgroundImageFix"/>
<feColorMatrix in="SourceAlpha" type="matrix" values="0 0 0 0 0 0 0 0 0 0 0 0 0 0 0 0 0 0 127 0" result="hardAlpha"/>
<feOffset dy="4"/>
<feGaussianBlur stdDeviation="2"/>
<feComposite in2="hardAlpha" operator="out"/>
<feColorMatrix type="matrix" values="0 0 0 0 0 0 0 0 0 0 0 0 0 0 0 0 0 0 0.25 0"/>
<feBlend mode="normal" in2="BackgroundImageFix" result="effect1_dropShadow_711_9792"/>
<feBlend mode="normal" in="SourceGraphic" in2="effect1_dropShadow_711_9792" result="shape"/>
</filter>
<filter id="filter8_d_711_9792" x="115.5" y="725.5" width="408" height="359" filterUnits="userSpaceOnUse" color-interpolation-filters="sRGB">
<feFlood flood-opacity="0" result="BackgroundImageFix"/>
<feColorMatrix in="SourceAlpha" type="matrix" values="0 0 0 0 0 0 0 0 0 0 0 0 0 0 0 0 0 0 127 0" result="hardAlpha"/>
<feOffset dx="2" dy="4"/>
<feGaussianBlur stdDeviation="2"/>
<feComposite in2="hardAlpha" operator="out"/>
<feColorMatrix type="matrix" values="0 0 0 0 0 0 0 0 0 0 0 0 0 0 0 0 0 0 0.25 0"/>
<feBlend mode="normal" in2="BackgroundImageFix" result="effect1_dropShadow_711_9792"/>
<feBlend mode="normal" in="SourceGraphic" in2="effect1_dropShadow_711_9792" result="shape"/>
</filter>
<filter id="filter9_d_711_9792" x="629.5" y="633.5" width="541" height="541" filterUnits="userSpaceOnUse" color-interpolation-filters="sRGB">
<feFlood flood-opacity="0" result="BackgroundImageFix"/>
<feColorMatrix in="SourceAlpha" type="matrix" values="0 0 0 0 0 0 0 0 0 0 0 0 0 0 0 0 0 0 127 0" result="hardAlpha"/>
<feOffset dy="4"/>
<feGaussianBlur stdDeviation="2"/>
<feComposite in2="hardAlpha" operator="out"/>
<feColorMatrix type="matrix" values="0 0 0 0 0 0 0 0 0 0 0 0 0 0 0 0 0 0 0.25 0"/>
<feBlend mode="normal" in2="BackgroundImageFix" result="effect1_dropShadow_711_9792"/>
<feBlend mode="normal" in="SourceGraphic" in2="effect1_dropShadow_711_9792" result="shape"/>
</filter>
<filter id="filter10_d_711_9792" x="698.5" y="725.5" width="408.406" height="359" filterUnits="userSpaceOnUse" color-interpolation-filters="sRGB">
<feFlood flood-opacity="0" result="BackgroundImageFix"/>
<feColorMatrix in="SourceAlpha" type="matrix" values="0 0 0 0 0 0 0 0 0 0 0 0 0 0 0 0 0 0 127 0" result="hardAlpha"/>
<feOffset dx="2" dy="4"/>
<feGaussianBlur stdDeviation="2"/>
<feComposite in2="hardAlpha" operator="out"/>
<feColorMatrix type="matrix" values="0 0 0 0 0 0 0 0 0 0 0 0 0 0 0 0 0 0 0.25 0"/>
<feBlend mode="normal" in2="BackgroundImageFix" result="effect1_dropShadow_711_9792"/>
<feBlend mode="normal" in="SourceGraphic" in2="effect1_dropShadow_711_9792" result="shape"/>
</filter>
<filter id="filter11_d_711_9792" x="1212.5" y="633.5" width="541" height="541" filterUnits="userSpaceOnUse" color-interpolation-filters="sRGB">
<feFlood flood-opacity="0" result="BackgroundImageFix"/>
<feColorMatrix in="SourceAlpha" type="matrix" values="0 0 0 0 0 0 0 0 0 0 0 0 0 0 0 0 0 0 127 0" result="hardAlpha"/>
<feOffset dy="4"/>
<feGaussianBlur stdDeviation="2"/>
<feComposite in2="hardAlpha" operator="out"/>
<feColorMatrix type="matrix" values="0 0 0 0 0 0 0 0 0 0 0 0 0 0 0 0 0 0 0.25 0"/>
<feBlend mode="normal" in2="BackgroundImageFix" result="effect1_dropShadow_711_9792"/>
<feBlend mode="normal" in="SourceGraphic" in2="effect1_dropShadow_711_9792" result="shape"/>
</filter>
<filter id="filter12_d_711_9792" x="1281.5" y="725.5" width="408" height="359" filterUnits="userSpaceOnUse" color-interpolation-filters="sRGB">
<feFlood flood-opacity="0" result="BackgroundImageFix"/>
<feColorMatrix in="SourceAlpha" type="matrix" values="0 0 0 0 0 0 0 0 0 0 0 0 0 0 0 0 0 0 127 0" result="hardAlpha"/>
<feOffset dx="2" dy="4"/>
<feGaussianBlur stdDeviation="2"/>
<feComposite in2="hardAlpha" operator="out"/>
<feColorMatrix type="matrix" values="0 0 0 0 0 0 0 0 0 0 0 0 0 0 0 0 0 0 0.25 0"/>
<feBlend mode="normal" in2="BackgroundImageFix" result="effect1_dropShadow_711_9792"/>
<feBlend mode="normal" in="SourceGraphic" in2="effect1_dropShadow_711_9792" result="shape"/>
</filter>
<filter id="filter13_d_711_9792" x="46.5" y="1216.5" width="541" height="541" filterUnits="userSpaceOnUse" color-interpolation-filters="sRGB">
<feFlood flood-opacity="0" result="BackgroundImageFix"/>
<feColorMatrix in="SourceAlpha" type="matrix" values="0 0 0 0 0 0 0 0 0 0 0 0 0 0 0 0 0 0 127 0" result="hardAlpha"/>
<feOffset dy="4"/>
<feGaussianBlur stdDeviation="2"/>
<feComposite in2="hardAlpha" operator="out"/>
<feColorMatrix type="matrix" values="0 0 0 0 0 0 0 0 0 0 0 0 0 0 0 0 0 0 0.25 0"/>
<feBlend mode="normal" in2="BackgroundImageFix" result="effect1_dropShadow_711_9792"/>
<feBlend mode="normal" in="SourceGraphic" in2="effect1_dropShadow_711_9792" result="shape"/>
</filter>
<filter id="filter14_d_711_9792" x="115.5" y="1307.5" width="408.406" height="359" filterUnits="userSpaceOnUse" color-interpolation-filters="sRGB">
<feFlood flood-opacity="0" result="BackgroundImageFix"/>
<feColorMatrix in="SourceAlpha" type="matrix" values="0 0 0 0 0 0 0 0 0 0 0 0 0 0 0 0 0 0 127 0" result="hardAlpha"/>
<feOffset dx="2" dy="4"/>
<feGaussianBlur stdDeviation="2"/>
<feComposite in2="hardAlpha" operator="out"/>
<feColorMatrix type="matrix" values="0 0 0 0 0 0 0 0 0 0 0 0 0 0 0 0 0 0 0.25 0"/>
<feBlend mode="normal" in2="BackgroundImageFix" result="effect1_dropShadow_711_9792"/>
<feBlend mode="normal" in="SourceGraphic" in2="effect1_dropShadow_711_9792" result="shape"/>
</filter>
<filter id="filter15_d_711_9792" x="629.5" y="1216.5" width="541" height="541" filterUnits="userSpaceOnUse" color-interpolation-filters="sRGB">
<feFlood flood-opacity="0" result="BackgroundImageFix"/>
<feColorMatrix in="SourceAlpha" type="matrix" values="0 0 0 0 0 0 0 0 0 0 0 0 0 0 0 0 0 0 127 0" result="hardAlpha"/>
<feOffset dy="4"/>
<feGaussianBlur stdDeviation="2"/>
<feComposite in2="hardAlpha" operator="out"/>
<feColorMatrix type="matrix" values="0 0 0 0 0 0 0 0 0 0 0 0 0 0 0 0 0 0 0.25 0"/>
<feBlend mode="normal" in2="BackgroundImageFix" result="effect1_dropShadow_711_9792"/>
<feBlend mode="normal" in="SourceGraphic" in2="effect1_dropShadow_711_9792" result="shape"/>
</filter>
<filter id="filter16_d_711_9792" x="698.094" y="1307.5" width="408.406" height="359" filterUnits="userSpaceOnUse" color-interpolation-filters="sRGB">
<feFlood flood-opacity="0" result="BackgroundImageFix"/>
<feColorMatrix in="SourceAlpha" type="matrix" values="0 0 0 0 0 0 0 0 0 0 0 0 0 0 0 0 0 0 127 0" result="hardAlpha"/>
<feOffset dx="2" dy="4"/>
<feGaussianBlur stdDeviation="2"/>
<feComposite in2="hardAlpha" operator="out"/>
<feColorMatrix type="matrix" values="0 0 0 0 0 0 0 0 0 0 0 0 0 0 0 0 0 0 0.25 0"/>
<feBlend mode="normal" in2="BackgroundImageFix" result="effect1_dropShadow_711_9792"/>
<feBlend mode="normal" in="SourceGraphic" in2="effect1_dropShadow_711_9792" result="shape"/>
</filter>
<filter id="filter17_d_711_9792" x="1212.5" y="1216.5" width="541" height="541" filterUnits="userSpaceOnUse" color-interpolation-filters="sRGB">
<feFlood flood-opacity="0" result="BackgroundImageFix"/>
<feColorMatrix in="SourceAlpha" type="matrix" values="0 0 0 0 0 0 0 0 0 0 0 0 0 0 0 0 0 0 127 0" result="hardAlpha"/>
<feOffset dy="4"/>
<feGaussianBlur stdDeviation="2"/>
<feComposite in2="hardAlpha" operator="out"/>
<feColorMatrix type="matrix" values="0 0 0 0 0 0 0 0 0 0 0 0 0 0 0 0 0 0 0.25 0"/>
<feBlend mode="normal" in2="BackgroundImageFix" result="effect1_dropShadow_711_9792"/>
<feBlend mode="normal" in="SourceGraphic" in2="effect1_dropShadow_711_9792" result="shape"/>
</filter>
<filter id="filter18_d_711_9792" x="1281.5" y="1307.5" width="408.406" height="359" filterUnits="userSpaceOnUse" color-interpolation-filters="sRGB">
<feFlood flood-opacity="0" result="BackgroundImageFix"/>
<feColorMatrix in="SourceAlpha" type="matrix" values="0 0 0 0 0 0 0 0 0 0 0 0 0 0 0 0 0 0 127 0" result="hardAlpha"/>
<feOffset dx="2" dy="4"/>
<feGaussianBlur stdDeviation="2"/>
<feComposite in2="hardAlpha" operator="out"/>
<feColorMatrix type="matrix" values="0 0 0 0 0 0 0 0 0 0 0 0 0 0 0 0 0 0 0.25 0"/>
<feBlend mode="normal" in2="BackgroundImageFix" result="effect1_dropShadow_711_9792"/>
<feBlend mode="normal" in="SourceGraphic" in2="effect1_dropShadow_711_9792" result="shape"/>
</filter>
</defs>
</svg>
